<svg width="14" height="14" viewBox="0 0 14 14" fill="none" xmlns="http://www.w3.org/2000/svg">
<path fill-rule="evenodd" clip-rule="evenodd" d="M8.605 3.70495C8.73627 3.57372 8.91429 3.5 9.0999 3.5C9.28552 3.5 9.46353 3.57372 9.5948 3.70495L12.3948 6.50495C12.526 6.63622 12.5998 6.81424 12.5998 6.99985C12.5998 7.18547 12.526 7.36348 12.3948 7.49475L9.5948 10.2947C9.46278 10.4223 9.28596 10.4928 9.10242 10.4912C8.91888 10.4896 8.74332 10.416 8.61353 10.2862C8.48374 10.1564 8.41013 9.98087 8.40853 9.79733C8.40694 9.61379 8.47749 9.43697 8.605 9.30495L10.2101 7.69985H2.0999C1.91425 7.69985 1.7362 7.6261 1.60493 7.49482C1.47365 7.36355 1.3999 7.1855 1.3999 6.99985C1.3999 6.8142 1.47365 6.63615 1.60493 6.50488C1.7362 6.3736 1.91425 6.29985 2.0999 6.29985H10.2101L8.605 4.69475C8.47377 4.56348 8.40005 4.38547 8.40005 4.19985C8.40005 4.01424 8.47377 3.83622 8.605 3.70495V3.70495Z" fill="white"/>
</svg>
